<svg viewBox="0 0 200 186" fill="none" xmlns="http://www.w3.org/2000/svg">
<path d="M195.716 4.28445C192.972 1.54114 189.251 0 185.371 0C181.491 0 177.77 1.54114 175.026 4.28445L164.47 14.8405C160.623 18.6872 157.724 23.3772 156.004 28.5387L154.341 33.5301C153.486 36.1039 152.333 38.5689 150.905 40.8749C148.278 45.1238 144.772 48.7621 140.624 51.546C136.476 54.33 131.781 56.1954 126.854 57.0172L117.242 58.6206L144.828 86.2068V78.5602C144.828 72.2671 146.714 66.1184 150.242 60.9071C153.77 55.6958 158.778 51.6611 164.621 49.3232L169.862 47.2284C173.82 45.6431 177.415 43.2721 180.431 40.2585L195.716 24.9741C198.459 22.2303 200 18.5092 200 14.6292C200 10.7493 198.459 7.02821 195.716 4.28443L195.716 4.28445ZM186.207 17.2414C185.525 17.2414 184.858 17.0391 184.291 16.6602C183.724 16.2813 183.282 15.7428 183.021 15.1127C182.76 14.4826 182.692 13.7893 182.825 13.1204C182.958 12.4515 183.286 11.837 183.769 11.3548C184.251 10.8725 184.865 10.5441 185.534 10.4111C186.203 10.278 186.896 10.3463 187.527 10.6073C188.157 10.8683 188.695 11.3103 189.074 11.8773C189.453 12.4444 189.655 13.1111 189.655 13.7931C189.655 14.2459 189.566 14.6944 189.393 15.1128C189.22 15.5312 188.966 15.9114 188.645 16.2316C188.325 16.5519 187.945 16.8059 187.527 16.9791C187.108 17.1524 186.66 17.2415 186.207 17.2414Z" fill="#C4D4E0"/>
<path d="M9.75801 157.504L15.915 164.53C22.6959 172.269 31.2699 178.227 40.8867 181.885C50.5035 185.543 60.8701 186.788 71.0796 185.512L77.2897 184.735C90.765 183.051 103.663 178.252 114.963 170.719C126.262 163.186 135.652 153.126 142.39 141.335L142.39 141.335C148.283 131.023 151.138 119.255 150.628 107.389C150.117 95.5233 146.261 84.0439 139.504 74.2764V74.2764L9.75801 157.504Z" fill="#E44B4D"/>
<path d="M112.466 149.905C112.451 149.918 112.435 149.93 112.418 149.94C107.44 153.628 102.171 156.907 96.6639 159.746C90.4752 162.954 84.0057 165.589 77.3364 167.617C45.4528 177.272 14.9011 170.522 3.99163 149.401C-9.11611 124.022 11.1166 87.5046 49.1855 67.8409C87.2544 48.1728 128.746 52.8021 141.858 78.1857C153.013 99.7761 140.03 129.427 112.466 149.905Z" fill="#395166"/>
<path d="M112.466 149.905C112.451 149.917 112.435 149.929 112.418 149.939C107.44 153.627 102.171 156.906 96.664 159.745C90.4752 162.953 84.0057 165.588 77.3364 167.616C56.5088 172.59 37.5347 168.021 30.414 154.667C21.0046 137.021 35.8494 110.732 63.5778 95.9433C91.3019 81.1546 121.41 83.4735 130.819 101.116C138.375 115.28 130.293 135.021 112.466 149.905Z" fill="#2F4054"/>
<path d="M117.242 75.8624C119.146 75.8624 120.69 74.3185 120.69 72.4141C120.69 70.5097 119.146 68.9658 117.242 68.9658C115.337 68.9658 113.793 70.5097 113.793 72.4141C113.793 74.3185 115.337 75.8624 117.242 75.8624Z" fill="#A6B2BC"/>
<path d="M131.035 82.7588C132.939 82.7588 134.483 81.215 134.483 79.3106C134.483 77.4061 132.939 75.8623 131.035 75.8623C129.13 75.8623 127.586 77.4061 127.586 79.3106C127.586 81.215 129.13 82.7588 131.035 82.7588Z" fill="#A6B2BC"/>
</svg>
