<svg viewBox="0 0 200 200" fill="none" xmlns="http://www.w3.org/2000/svg">
<path d="M73.3332 173.379C58.6054 173.379 46.6664 161.44 46.6664 146.712V100.241C46.6664 98.9853 47.4695 97.8708 48.6605 97.4735L59.0773 94.0013C59.6762 93.8017 60.3234 93.8017 60.9219 94.0013L71.3386 97.4735C72.5297 97.8704 73.3328 98.9853 73.3328 100.241V140.045C73.3328 143.727 76.3176 146.712 79.9996 146.712L120.016 146.711C123.698 146.711 126.683 143.726 126.682 140.043L126.678 119.968C126.678 117.977 128.629 116.57 130.518 117.2L139.077 120.053C139.676 120.253 140.323 120.253 140.922 120.053L149.494 117.196C151.382 116.566 153.333 117.972 153.333 119.963V146.712C153.333 161.44 141.394 173.379 126.666 173.379H73.3332Z" fill="#73BCFF"/>
<path d="M126.667 26.6221C141.394 26.6221 153.333 38.5611 153.333 53.2889V99.7603C153.333 101.016 152.53 102.13 151.339 102.528L140.923 106C140.324 106.199 139.676 106.199 139.078 106L128.67 102.53C127.479 102.133 126.676 101.019 126.675 99.7638L126.668 59.9545C126.667 56.2732 123.683 53.2889 120.001 53.2889H79.9999C76.3179 53.2889 73.3331 56.2736 73.3331 59.9557V80.0381C73.3331 82.0287 71.3827 83.4345 69.494 82.8052L60.9222 79.9478C60.3233 79.7482 59.6761 79.7482 59.0776 79.9478L50.5057 82.8052C48.6171 83.4349 46.6667 82.0291 46.6667 80.0381V53.2889C46.6667 38.5611 58.6057 26.6221 73.3335 26.6221H126.667Z" fill="#73BCFF"/>
<path d="M86.6669 43.0184H80.0001C78.3333 43.0184 76.9821 41.6672 76.9821 40.0004C76.9821 38.3336 78.3333 36.9824 80.0001 36.9824H86.6669C88.3337 36.9824 89.6848 38.3336 89.6848 40.0004C89.6848 41.6672 88.3337 43.0184 86.6669 43.0184Z" fill="#737EE6"/>
<path d="M120 43.0184H113.333C111.666 43.0184 110.315 41.6672 110.315 40.0004C110.315 38.3336 111.666 36.9824 113.333 36.9824H120C121.667 36.9824 123.018 38.3336 123.018 40.0004C123.018 41.6672 121.667 43.0184 120 43.0184Z" fill="#737EE6"/>
<path d="M86.6669 163.018H80.0001C78.3333 163.018 76.9821 161.667 76.9821 160C76.9821 158.334 78.3333 156.982 80.0001 156.982H86.6669C88.3337 156.982 89.6848 158.334 89.6848 160C89.6848 161.667 88.3337 163.018 86.6669 163.018Z" fill="#737EE6"/>
<path d="M120 163.018H113.333C111.666 163.018 110.315 161.667 110.315 160C110.315 158.334 111.666 156.982 113.333 156.982H120C121.667 156.982 123.018 158.334 123.018 160C123.018 161.667 121.667 163.018 120 163.018Z" fill="#737EE6"/>
<path d="M64.0777 59.9553V80.0377C64.0777 80.3596 64.0219 80.6643 63.9285 80.9494L69.4941 82.8045C71.3828 83.4338 73.3332 82.0283 73.3332 80.0373V59.9549C73.3332 56.2729 76.318 53.2881 80 53.2881H70.7445C67.0625 53.2889 64.0777 56.2736 64.0777 59.9553Z" fill="#737EE6"/>
<path d="M126.667 26.6221H117.411C132.139 26.6221 144.078 38.5611 144.078 53.2889V99.76C144.078 101.015 143.275 102.13 142.084 102.527L135.373 104.764L139.078 105.999C139.677 106.199 140.324 106.199 140.923 105.999L151.339 102.527C152.53 102.13 153.334 101.015 153.334 99.76V53.2889C153.333 38.5611 141.394 26.6221 126.667 26.6221Z" fill="#737EE6"/>
<path d="M62.0835 97.4731C63.2745 97.87 64.0776 98.9849 64.0776 100.24V140.045C64.0776 143.727 67.0624 146.711 70.7444 146.711H79.9968C76.3163 146.709 73.3335 143.725 73.3335 140.045V100.24C73.3335 98.9849 72.53 97.8704 71.3394 97.4735L60.9226 94.0013C60.3237 93.8017 59.6765 93.8017 59.078 94.0013L55.3726 95.2364L62.0835 97.4731Z" fill="#737EE6"/>
<path d="M149.494 117.195L143.929 119.05C144.023 119.336 144.078 119.64 144.078 119.962V146.711C144.078 161.439 132.139 173.378 117.411 173.378H126.667C141.394 173.378 153.334 161.439 153.334 146.711V119.962C153.333 117.971 151.383 116.565 149.494 117.195Z" fill="#737EE6"/>
<path d="M100.833 66.6668H99.1664C92.2629 66.6668 86.6664 61.0703 86.6664 54.1668V3.125C86.6664 1.39922 88.0656 0 89.7914 0H110.208C111.934 0 113.333 1.39922 113.333 3.125V54.1668C113.333 61.0703 107.737 66.6668 100.833 66.6668Z" fill="#F2F2FC"/>
<path d="M99.1668 133.333H100.834C107.737 133.333 113.334 138.929 113.334 145.833V196.875C113.334 198.601 111.934 200 110.209 200H89.7918C88.066 200 86.6668 198.601 86.6668 196.875V145.833C86.6668 138.929 92.2629 133.333 99.1668 133.333Z" fill="#F2F2FC"/>
<path d="M110.114 0H100.859C102.637 0 104.078 1.44141 104.078 3.21914V53.7895C104.078 59.4406 100.436 64.2383 95.3727 65.9719C96.6813 66.4199 98.0836 66.6668 99.5442 66.6668H100.456C107.568 66.6668 113.334 60.9016 113.334 53.7895V3.21914C113.333 1.44141 111.892 0 110.114 0V0Z" fill="#DFDEF5"/>
<path d="M100.456 133.333H99.5442C98.0836 133.333 96.6813 133.58 95.3727 134.028C100.436 135.762 104.078 140.559 104.078 146.21V196.781C104.078 198.558 102.637 200 100.859 200H110.114C111.892 200 113.333 198.558 113.333 196.781V146.21C113.333 139.099 107.568 133.333 100.456 133.333Z" fill="#DFDEF5"/>
<path d="M113.333 16.3518V10.3154H86.6668V16.3518H113.333Z" fill="#B9B6EC"/>
<path d="M113.333 189.685V183.648H86.6668V189.685H113.333Z" fill="#B9B6EC"/>
<path d="M20 103.018H6.66677C4.99998 103.018 3.6488 101.667 3.6488 100C3.6488 98.3336 4.99998 96.9824 6.66677 96.9824H20C21.6668 96.9824 23.0179 98.3336 23.0179 100C23.0183 101.667 21.6668 103.018 20 103.018Z" fill="#FDBF00"/>
<path d="M19.1737 149.686C18.1308 149.686 17.1163 149.144 16.5573 148.176C15.7237 146.733 16.2183 144.886 17.662 144.053L29.2089 137.386C30.6522 136.553 32.4983 137.047 33.3315 138.491C34.1651 139.934 33.6706 141.781 32.2269 142.614L20.68 149.281C20.2046 149.555 19.6854 149.686 19.1737 149.686Z" fill="#FDBF00"/>
<path d="M180.826 149.686C180.314 149.686 179.795 149.555 179.32 149.281L167.773 142.614C166.329 141.781 165.835 139.935 166.668 138.491C167.501 137.048 169.348 136.553 170.791 137.387L182.338 144.053C183.782 144.887 184.276 146.733 183.443 148.176C182.884 149.144 181.869 149.686 180.826 149.686Z" fill="#FDBF00"/>
<path d="M193.333 103.018H180C178.333 103.018 176.982 101.667 176.982 100C176.982 98.3336 178.333 96.9824 180 96.9824H193.333C195 96.9824 196.351 98.3336 196.351 100C196.351 101.667 195 103.018 193.333 103.018Z" fill="#FDBF00"/>
<path d="M169.285 63.0187C168.242 63.0187 167.227 62.4772 166.668 61.5089C165.835 60.0655 166.329 58.2194 167.773 57.3862L179.32 50.7194C180.764 49.8858 182.609 50.3804 183.443 51.8241C184.276 53.2675 183.782 55.1136 182.338 55.9468L170.791 62.6136C170.316 62.8882 169.797 63.0187 169.285 63.0187Z" fill="#FDBF00"/>
<path d="M30.7151 63.0188C30.203 63.0188 29.6843 62.8884 29.2089 62.6137L17.662 55.9469C16.2183 55.1137 15.7237 53.2677 16.5573 51.8243C17.3905 50.3805 19.2366 49.8856 20.68 50.7196L32.2269 57.3864C33.6706 58.2196 34.1651 60.0657 33.3315 61.5091C32.7726 62.4774 31.7581 63.0188 30.7151 63.0188Z" fill="#FDBF00"/>
</svg>
