<svg viewBox="0 0 200 200" fill="none" xmlns="http://www.w3.org/2000/svg">
<path d="M0.00280762 41.3799H13.7958V199.999H0.00280762V41.3799Z" fill="#995023"/>
<path d="M186.208 41.3799H200.001V199.999H186.208V41.3799Z" fill="#995023"/>
<path d="M13.7957 55.1738H186.208V68.9668H13.7957V55.1738Z" fill="#8F4B20"/>
<path d="M55.1745 134.583V52.9556C55.1358 48.3995 56.2268 43.904 58.35 39.8698C61.608 33.795 65.5192 29.6564 65.5192 22.4148C65.5192 16.4157 63.1149 10.6658 58.8416 6.45321C54.5701 2.24057 48.7865 -0.0829515 42.7875 0.00123387C40.0716 0.0483776 37.3895 0.607369 34.8808 1.64959L45.84 12.6088C47.1853 13.9558 47.1853 16.1379 45.84 17.4849L38.526 24.7989C37.8795 25.4454 37.0022 25.8091 36.0863 25.8091C35.1704 25.8091 34.2932 25.4454 33.6466 24.7989L22.5644 13.7184C21.1905 16.8198 20.5608 20.199 20.7225 23.5883C21.4347 28.4862 23.3524 33.1316 26.3023 37.1085C29.306 41.7269 30.9476 47.0996 31.0369 52.6087V134.583C22.6453 139.944 18.798 150.198 21.5913 159.757C24.3845 169.313 33.1482 175.883 43.1057 175.883C53.0631 175.883 61.8252 169.313 64.6184 159.757C67.4117 150.198 63.5644 139.944 55.1745 134.583ZM48.3841 162.068H38.0394L32.8671 153.448L38.0394 144.827H48.3841L53.5565 153.448L48.3841 162.068Z" fill="#C4C4C2"/>
<path d="M39.4437 48.2764H46.3402V134.482H39.4437V48.2764Z" fill="#A6A6A4"/>
<path d="M93.105 82.7596H79.312V24.1396L75.8638 13.7949L79.312 0.00195312H93.105L96.5532 13.7949L93.105 24.1396V82.7596Z" fill="#C4C4C2"/>
<path d="M68.9675 82.7598V96.5527H75.864L68.9675 110.346V172.414C68.9675 181.937 76.6856 189.655 86.2087 189.655C95.73 189.655 103.45 181.937 103.45 172.414V110.346L96.5534 96.5527H103.45V82.7598H68.9675Z" fill="#7EA633"/>
<path d="M13.7957 110.346H186.208V200H13.7957V110.346Z" fill="#995023"/>
<path d="M117.243 0.00195312H144.829V110.346H117.243V0.00195312Z" fill="#FDB62F"/>
<path d="M117.243 10.3467H131.036V17.2432H117.243V10.3467Z" fill="#FD882F"/>
<path d="M117.243 24.1396H131.036V31.0362H117.243V24.1396Z" fill="#FD882F"/>
<path d="M117.243 37.9326H131.036V44.8292H117.243V37.9326Z" fill="#FD882F"/>
<path d="M117.243 51.7256H131.036V58.6222H117.243V51.7256Z" fill="#FD882F"/>
<path d="M117.243 65.5186H131.036V72.4151H117.243V65.5186Z" fill="#FD882F"/>
<path d="M117.243 79.3115H131.036V86.2081H117.243V79.3115Z" fill="#FD882F"/>
<path d="M117.243 93.1045H131.036V100.001H117.243V93.1045Z" fill="#FD882F"/>
<path d="M165.518 17.2432L161.38 27.588H169.655L165.518 17.2432Z" fill="#7A3E1A"/>
<path d="M161.38 27.5869L158.622 34.4834V110.345H172.415V34.4834L169.655 27.5869H161.38Z" fill="#DD4A43"/>
<path d="M13.7957 179.08V200H186.208V115.636C131.753 144.222 73.7896 165.553 13.7957 179.08Z" fill="#8F4B20"/>
<path d="M13.7957 110.346H20.6921V200H13.7957V110.346Z" fill="#7A3E1A"/>
<path d="M179.311 110.346H186.208V200H179.311V110.346Z" fill="#7A3E1A"/>
<path d="M13.7957 55.1738H20.6922V68.9669H13.7957V55.1738Z" fill="#7A3E1A"/>
<path d="M179.311 55.1738H186.208V68.9669H179.311V55.1738Z" fill="#7A3E1A"/>
</svg>
