<svg viewBox="0 0 200 200" fill="none" xmlns="http://www.w3.org/2000/svg">
<path d="M198.305 196.61V156.214C198.305 151.79 196.146 147.644 192.522 145.105L167.034 127.261C165.325 126.064 163.288 125.424 161.2 125.424H140.678L141.017 183.424C141.142 189.468 145.091 194.763 150.847 196.61H198.305Z" fill="#FEC9A3"/>
<path d="M177.966 196.61H154.237C146.749 196.61 140.678 190.539 140.678 183.051V169.491H164.407L177.966 196.61Z" fill="#FABD91"/>
<path d="M89.8305 23.7289C87.495 23.7324 85.1864 24.2203 83.0509 25.1594V0H22.0341C10.8001 0 1.69501 9.10508 1.69501 20.3391V81.3559H26.8544C23.0915 72.7863 26.9864 62.7863 35.5595 59.0238C44.129 55.2609 54.129 59.1559 57.8915 67.7289C59.8001 72.0711 59.8001 77.0172 57.8915 81.3594H83.0509V56.2C91.6204 59.9629 101.62 56.068 105.383 47.4949C109.145 38.9219 105.251 28.9254 96.6778 25.1629C94.5219 24.2102 92.1899 23.7254 89.8305 23.7289Z" fill="#88B337"/>
<path d="M164.407 20.3391C164.407 9.10508 155.302 0 144.068 0H83.0508V25.1594C91.6203 21.3965 101.62 25.2914 105.383 33.8645C109.146 42.434 105.251 52.434 96.6777 56.1965C92.3355 58.1051 87.3894 58.1051 83.0472 56.1965V81.3559H108.207C104.444 89.9254 108.339 99.9254 116.912 103.688C125.481 107.451 135.481 103.556 139.244 94.9828C141.152 90.6406 141.152 85.6945 139.244 81.3523H164.407V20.3391Z" fill="#E8594A"/>
<path d="M164.407 22.2744C145.03 49.2303 110.051 64.542 83.0508 72.783V81.3561H108.21C104.447 89.9256 108.342 99.9256 116.915 103.688C125.485 107.451 135.485 103.556 139.247 94.983C141.156 90.6408 141.156 85.6947 139.247 81.3526H164.407V22.2744Z" fill="#D65245"/>
<path d="M76.2712 108.474C78.6067 108.478 80.9153 108.965 83.0509 109.905V81.3553H57.8915C61.6544 72.7858 57.7595 62.7858 49.1864 59.0233C40.6134 55.2604 30.6169 59.1554 26.8544 67.7284C24.9458 72.0706 24.9458 77.0167 26.8544 81.3589H1.69501V142.376C1.69501 153.61 10.8001 162.715 22.0341 162.715H83.0509V140.945C74.4813 144.708 64.4813 140.813 60.7188 132.24C56.9559 123.671 60.8509 113.671 69.4239 109.908C71.5798 108.955 73.9118 108.471 76.2712 108.474Z" fill="#FDB62F"/>
<path d="M1.69497 142.373C1.69497 153.607 10.8 162.712 22.034 162.712H83.0508V140.943C74.5219 144.698 64.5625 140.831 60.8067 132.302C59.9356 130.322 59.4508 128.19 59.3829 126.027C41.2098 134.132 21.5895 138.495 1.69458 138.858V142.373H1.69497Z" fill="#FFA719"/>
<path d="M173.271 152.203L151.824 94.915L128.268 103.786C134.834 110.474 134.732 121.22 128.044 127.783C121.356 134.346 110.61 134.247 104.047 127.559C100.705 124.152 98.9489 119.498 99.2133 114.732L75.6606 123.603L85.6946 150.413C83.3657 150.281 81.0337 150.637 78.8473 151.457C70.0946 154.854 65.7559 164.701 69.1524 173.454C72.4915 182.054 82.0813 186.423 90.7626 183.291C92.9489 182.467 94.9423 181.192 96.6098 179.555L104.258 200L161.383 178.485C171.912 174.498 177.231 162.742 173.271 152.203Z" fill="#4398D1"/>
<path d="M162.21 122.661C138.82 157.644 94.973 169.861 69.2914 174.068C72.8949 182.641 82.766 186.668 91.3386 183.064C93.3015 182.24 95.0914 181.047 96.6097 179.556L104.258 200L161.383 178.485C171.909 174.499 177.224 162.749 173.271 152.214L162.21 122.661Z" fill="#3E8FC9"/>
<path d="M89.8305 23.7285C87.495 23.732 85.1864 24.2199 83.0509 25.159V20.2402C57.668 43.6063 23.2782 56.5113 1.69501 62.7996V81.3555H26.8544C23.0915 72.7859 26.9864 62.7859 35.5595 59.0234C44.129 55.2605 54.129 59.1555 57.8915 67.7285C59.8001 72.0707 59.8001 77.0168 57.8915 81.359H83.0509V56.1996C91.6204 59.9625 101.62 56.0676 105.383 47.4945C109.145 38.9215 105.251 28.925 96.6778 25.1625C94.5219 24.2098 92.1899 23.725 89.8305 23.7285Z" fill="#80A834"/>
<path d="M157.688 152.604C154.444 149.295 149.132 149.241 145.824 152.485C142.515 155.729 142.461 161.041 145.705 164.35C145.746 164.39 145.783 164.431 145.824 164.468L157.627 176.272C157.627 187.506 166.732 196.611 177.966 196.611H198.305V193.221L157.688 152.604Z" fill="#FEC9A3"/>
</svg>
